<svg width="60" height="70" viewBox="0 0 60 70" fill="none" xmlns="http://www.w3.org/2000/svg">
<path d="M30.5777 11.8122C30.0588 11.5086 29.2131 11.5086 28.6942 11.8045L11.7775 21.5371C11.2586 21.8369 11.2625 22.3174 11.7814 22.6134L13.9147 23.8088C14.4375 24.1009 15.2869 24.0933 15.8059 23.7934L29.0978 16.0866C29.6167 15.7867 30.4701 15.779 30.9928 16.0673L32.7226 17.0283C33.2453 17.3204 33.253 17.8086 32.7379 18.1123L19.5997 25.8845C19.0847 26.1881 19.0847 26.6878 19.6036 26.9877L28.6173 32.2652C29.1324 32.5689 29.9819 32.5689 30.497 32.2652L47.0985 22.5519C47.6136 22.2482 47.6136 21.7524 47.0985 21.4525L30.5777 11.8122ZM30.251 27.8986C29.7359 28.2062 28.8941 28.1985 28.3829 27.8871L26.5301 26.7609C26.0189 26.4495 26.0228 25.9498 26.5417 25.65L35.7015 20.3494C36.2204 20.0495 37.0776 20.0303 37.6119 20.3071L39.553 21.318C40.0835 21.5948 40.0989 22.0714 39.58 22.3751L30.251 27.8986Z" fill="white"/>
<path d="M10.0016 25.7922C9.48657 25.4847 9.0676 25.7192 9.0676 26.3188V29.8974C9.0676 30.497 9.48657 31.2427 9.9978 31.5541L21.9982 38.8458C22.5095 39.1572 22.9284 39.9029 22.9284 40.4987V42.2668C22.9284 42.8665 22.5056 43.1086 21.9867 42.8088L9.58267 35.5901C9.06375 35.2864 8.64093 35.5325 8.64093 36.1321V47.3599C8.64093 47.9596 9.07144 48.6822 9.60189 48.9666L26.3418 57.9574C26.8684 58.2418 27.3027 57.9843 27.3027 57.3846V37.3045C27.3027 36.7048 26.8837 35.963 26.3687 35.6516L10.0016 25.7922ZM23.259 50.6772C23.259 51.2768 22.8285 51.5343 22.3019 51.246L13.0613 46.2375C12.5347 45.9531 12.1042 45.2266 12.1042 44.627V42.8972C12.1042 42.2976 12.5347 42.0439 13.0613 42.3283L22.3019 47.3369C22.8285 47.6213 23.259 48.3439 23.259 48.9436V50.6772Z" fill="white"/>
<path d="M32.5073 35.5132C31.9845 35.8092 31.5579 36.5395 31.5579 37.1391V57.1501C31.5579 57.7497 31.973 57.9804 32.4804 57.6613L35.1096 56.0046C35.6169 55.6856 36.0321 54.9322 36.0321 54.3326V47.2253C36.0321 46.6257 36.4664 45.9069 36.993 45.6263L44.6384 41.5557C45.1689 41.2751 45.5994 41.5326 45.5994 42.1323V48.5169C45.5994 49.1165 46.026 49.3663 46.5488 49.0742L49.0588 47.6751C49.5816 47.3829 50.0083 46.6526 50.0083 46.053V26.6455C50.0083 26.0458 49.5777 25.7921 49.055 26.0804L46.914 27.2528C46.3874 27.5411 45.9607 28.2676 45.9607 28.8672V35.371C45.9607 35.9706 45.5302 36.6932 45.0036 36.9815L36.8662 41.3942C36.3396 41.6787 35.9091 41.425 35.9091 40.8254V34.6829C35.9091 34.0833 35.4824 33.8334 34.9597 34.1294L32.5073 35.5132Z" fill="white"/>
<path d="M29.2477 0L0 17.6509V54.7362L29.3822 70.0039L59.7331 52.8104V18.2774L29.2477 0ZM55.3627 50.2543L29.29 65.0261L4.35506 52.0993V20.1109L29.2592 5.09308L55.3627 20.7567V50.2543Z" fill="#1FA1DB"/>
</svg>
